<?xml version="1.0" standalone="no"?>
<!DOCTYPE svg PUBLIC "-//W3C//DTD SVG 20010904//EN"
 "http://www.w3.org/TR/2001/REC-SVG-20010904/DTD/svg10.dtd">
<svg version="1.0" xmlns="http://www.w3.org/2000/svg"
 width="300.000000pt" height="300.000000pt" viewBox="0 0 300.000000 300.000000"
 preserveAspectRatio="xMidYMid meet">

<g transform="translate(0.000000,300.000000) scale(0.100000,-0.100000)"
fill="#000000" stroke="none">
<path d="M994 2361 c-20 -12 -38 -35 -48 -63 -16 -41 -16 -65 4 -393 11 -193
22 -355 25 -362 2 -6 17 -14 34 -18 41 -9 140 -74 174 -115 15 -18 30 -30 33
-28 2 3 -7 205 -22 449 -28 482 -30 495 -88 530 -39 24 -73 24 -112 0z"/>
<path d="M1902 2366 c-33 -18 -61 -64 -67 -111 -8 -59 -45 -722 -45 -805 l0
-71 51 50 c44 44 113 85 170 104 20 7 23 35 45 427 15 278 15 308 1 342 -27
64 -101 95 -155 64z"/>
<path d="M1145 1231 c-52 -13 -91 -39 -138 -91 -57 -64 -81 -131 -80 -225 5
-297 303 -511 628 -452 222 40 423 180 506 354 42 87 46 184 11 250 -44 84
-129 144 -222 158 -34 5 -74 -1 -163 -24 -156 -41 -234 -41 -348 -2 -97 33
-152 42 -194 32z m343 -461 c85 -10 158 -36 227 -83 l37 -25 -38 -20 c-218
-109 -469 -77 -593 78 l-31 39 43 9 c56 13 252 14 355 2z"/>
</g>
</svg>
